<svg xmlns="http://www.w3.org/2000/svg" width="108" height="108" viewBox="0 0 108 108" role="img" aria-label="NeoDB Lite icon">
  <rect width="108" height="108" rx="24" fill="#ffffff"/>
  <g transform="translate(26.88 18) scale(0.669)">
    <g transform="translate(-45.741197 -190.14988) scale(0.95294163)">
      <g transform="translate(27.709267 192.98645) scale(1.2602785)">
        <path fill="#c0d9b4" d="m 83.3,27.4 -8.7,-8.7 c 0.1,0 0.3,0 0.4,0 3.2,0 5.9,-2.6 5.9,-5.9 C 80.9,9.6 78.3,7 75,7 c -3.2,0 -5.9,2.6 -5.9,5.9 0,0.1 0,0.3 0,0.4 L 61,5.2 l -21,21 -0.7,0.8 -0.4,0.4 9.5,9.5 c -0.6,-0.2 -1.2,-0.3 -1.8,-0.3 -2.9,0 -5.3,2.4 -5.3,5.3 0,2.9 2.4,5.3 5.3,5.3 2.9,0 5.3,-2.4 5.3,-5.3 0,-0.5 -0.1,-0.9 -0.2,-1.4 0,-0.2 -0.1,-0.3 -0.1,-0.5 l 0.5,0.5 9.2,9.2 0.4,-0.4 0.8,-0.8 6.8,-6.8 c 0,0 0,0 0,0 -3.2,0 -5.9,-2.6 -5.9,-5.9 0,-3.3 2.6,-5.9 5.9,-5.9 3.2,0 5.9,2.6 5.9,5.9 0,0 0,0 0,0 z"/>
      </g>
      <g transform="translate(27.583487 192.79709) scale(1.2602785)">
        <path fill="#8dcaff" d="m 46.5,49.5 c -4.2,0 -7.6,-3.4 -7.6,-7.6 0,-3 1.7,-5.6 4.2,-6.8 l -5.9,-5.9 v 0 l -21,21 22.2,22.2 9.5,-9.5 c -0.3,0.6 -0.4,1.3 -0.4,2 0,2.9 2.4,5.3 5.3,5.3 2.9,0 5.3,-2.4 5.3,-5.3 0,-2.9 -2.4,-5.3 -5.3,-5.3 -0.7,0 -1.4,0.1 -2,0.4 l 8.6,-8.6 -6,-6 c -1.3,2.3 -3.9,4.1 -6.9,4.1 z"/>
      </g>
      <g transform="translate(27.51993 192.73364) scale(1.2602785)">
        <path fill="#ffb380" d="m 61.1,52.9 v 0 0 l -4.9,4.9 c 2.5,1.2 4.3,3.8 4.3,6.9 0,4.2 -3.4,7.6 -7.6,7.6 -3,0 -5.6,-1.8 -6.9,-4.3 L 40.1,73.9 40,74 61,95 69.1,86.9 v 0 c -3.2,0 -5.9,-2.6 -5.9,-5.9 0,-3.3 2.6,-5.9 5.9,-5.9 3.2,0 5.9,2.6 5.9,5.9 l 7.1,-7.1 -8.1,-8 v 0 l -0.6,-0.6 c 0.1,0 0.3,0 0.4,0 3.2,0 5.9,-2.6 5.9,-5.9 0,-1.5 -0.6,-2.8 -1.5,-3.9 -1,-0.9 -2.4,-1.5 -3.9,-1.5 -3.2,0 -5.9,2.6 -5.9,5.9 0,0.1 0,0.3 0,0.4 L 68,59.9 v 0 z"/>
      </g>
    </g>
  </g>
</svg>
