<svg xmlns="http://www.w3.org/2000/svg" width="108" height="108" viewBox="0 0 108 108" role="img" aria-label="NeoDB Lite icon">
  <rect width="108" height="108" rx="24" fill="#ffffff"/>
  <g transform="translate(22 22) scale(2.6667)">
    <clipPath id="puzzle-piece">
      <path d="M20.5,11H19V7c0,-1.1 -0.9,-2 -2,-2h-4V3.5C13,2.12 11.88,1 10.5,1S8,2.12 8,3.5V5H4c-1.1,0 -1.99,0.9 -1.99,2v3.8H3.5c1.49,0 2.7,1.21 2.7,2.7s-1.21,2.7 -2.7,2.7H2V20c0,1.1 0.9,2 2,2h3.8v-1.5c0,-1.49 1.21,-2.7 2.7,-2.7 1.49,0 2.7,1.21 2.7,2.7V22H17c1.1,0 2,-0.9 2,-2v-4h1.5c1.38,0 2.5,-1.12 2.5,-2.5S21.88,11 20.5,11z"/>
    </clipPath>
    <g clip-path="url(#puzzle-piece)">
      <path fill="#8DCAFF" d="M-2,10.8H10.6V26H-2z"/>
      <path fill="#FFB380" d="M10.6,10.8H26V26H10.6z"/>
      <path fill="#C0D9B4" d="M-2,-2H26V10.8H13.8c0,1.8 -1.4,3.2 -3.2,3.2s-3.2,-1.4 -3.2,-3.2H-2z"/>
    </g>
  </g>
</svg>
